# xmcd
#
# Track frame offsets:
# 150
# 14614
# 28273
# 41062
# 58636
# 75161
# 83174
# 95646
# 107477
# 122445
# 140529
# 157070
#
# Disc length: 2265 seconds
#
# Revision: 0
# Processed by: cddbd v1.5.2PL0 Copyright (c) Steve Scherf et al.
# Submitted via: Audion 3.0.2 (http://www.panic.com/audion/)
#
DISCID=9508d70c
DTITLE=test - test
DYEAR=1900
DGENRE=
TTITLE0=1
TTITLE1=1
TTITLE2=1
TTITLE3=1
TTITLE4=1
TTITLE5=1
TTITLE6=1
TTITLE7=1
TTITLE8=1
TTITLE9=1
TTITLE10=1
TTITLE11=1
EXTD=
EXTT0=
EXTT1=
EXTT2=
EXTT3=
EXTT4=
EXTT5=
EXTT6=
EXTT7=
EXTT8=
EXTT9=
EXTT10=
EXTT11=
PLAYORDER=
